<?xml version="1.0" encoding="utf-8"?>
<!-- Generator: Adobe Illustrator 16.0.4, SVG Export Plug-In . SVG Version: 6.00 Build 0)  -->
<!DOCTYPE svg PUBLIC "-//W3C//DTD SVG 1.1//EN" "http://www.w3.org/Graphics/SVG/1.1/DTD/svg11.dtd">
<svg version="1.1" id="Layer_1" xmlns="http://www.w3.org/2000/svg" xmlns:xlink="http://www.w3.org/1999/xlink" x="0px" y="0px"
	 width="50px" height="50px" viewBox="0 0 50 50" enable-background="new 0 0 50 50" xml:space="preserve">
<path fill-rule="evenodd" clip-rule="evenodd" fill="#333333" d="M13.801,15.922h3.613c0.11-2.131,1.011-4.056,2.431-5.46
	C21.359,8.947,23.458,8,25.762,8c2.32,0,4.403,0.947,5.918,2.461c1.421,1.405,2.32,3.329,2.447,5.46h3.613l2.683,26.276H11.101
	L13.801,15.922z M19.039,15.922h13.463c-0.112-1.688-0.854-3.203-1.975-4.324c-1.214-1.216-2.903-1.973-4.766-1.973
	c-1.861,0-3.55,0.757-4.766,1.973C19.876,12.719,19.149,14.233,19.039,15.922L19.039,15.922z"/>
</svg>
