<?xml version="1.0" encoding="utf-8"?>
<!-- Generator: Adobe Illustrator 16.0.4, SVG Export Plug-In . SVG Version: 6.00 Build 0)  -->
<!DOCTYPE svg PUBLIC "-//W3C//DTD SVG 1.1//EN" "http://www.w3.org/Graphics/SVG/1.1/DTD/svg11.dtd">
<svg version="1.1" id="Layer_1" xmlns="http://www.w3.org/2000/svg" xmlns:xlink="http://www.w3.org/1999/xlink" x="0px" y="0px"
	 width="50px" height="50px" viewBox="0 0 50 50" enable-background="new 0 0 50 50" xml:space="preserve">
<path fill-rule="evenodd" clip-rule="evenodd" fill="#006554" d="M12.335,35.233h-1.123V17.355L4.592,19.49v15.744H3.528v2.813
	H46.75v-2.813h-1.28V23.19l0.529,0.056v-1.553l-8.013-1.584c0-0.784,0-1.567,0-2.354c0.228,0.052,0.463,0.104,0.69,0.155
	c0-0.641,0-1.281,0-1.925L23.76,12.321l-8.945,2.627l3.838,0.744l5.107-1.133l0.736,0.15v2.693l-13.283-2.716l-7.379,2.661v1.883
	l7.379-2.396c0.383,0.068,0.755,0.133,1.123,0.199V35.233L12.335,35.233z M36.321,35.723h-3.967c0-2.01,0-4.02,0-6.027
	c1.355,0.121,2.681,0.24,3.967,0.355C36.321,31.941,36.321,33.832,36.321,35.723L36.321,35.723z M31.19,35.723l-4.413-0.014
	c0-2.172,0-4.345,0-6.518c1.516,0.137,2.98,0.269,4.413,0.398C31.19,31.634,31.19,33.679,31.19,35.723L31.19,35.723z M23.76,16.709
	l-3.897-0.774l3.876-0.796L23.76,16.709L23.76,16.709z M23.314,27.906c0,1.661,0,3.322,0,4.983
	c-1.224-0.065-2.486-0.133-3.785-0.199c0-1.72,0.004-3.439,0.004-5.159C20.828,27.659,22.09,27.785,23.314,27.906L23.314,27.906z
	 M41.587,29.719c0,1.378,0,2.754,0,4.132c-0.841-0.045-1.705-0.09-2.588-0.137c0-1.417,0-2.835,0-4.252
	C39.882,29.549,40.746,29.635,41.587,29.719L41.587,29.719z M23.314,20.682c0,1.661,0,3.321,0,4.983
	c-1.224-0.148-2.486-0.301-3.781-0.455c0-5.187,0,0.027,0-5.159C20.828,20.268,22.09,20.476,23.314,20.682L23.314,20.682z
	 M28.554,21.554c0,1.58,0,3.16,0,4.739c-1.109-0.134-2.25-0.271-3.418-0.411c0-1.631,0-3.264,0-4.897
	C26.304,21.18,27.444,21.369,28.554,21.554L28.554,21.554z M33.303,22.346c0,1.506,0,3.012,0,4.518
	c-1.009-0.122-2.045-0.245-3.104-0.372c0-1.555,0-3.109,0-4.663C31.258,22.004,32.294,22.177,33.303,22.346L33.303,22.346z
	 M37.631,23.066c0,1.438,0,2.878,0,4.316c-0.923-0.111-1.867-0.224-2.83-0.339c0-1.483,0-2.967,0-4.45
	C35.764,22.755,36.708,22.913,37.631,23.066L37.631,23.066z M41.587,23.726c0,1.378,0,2.756,0,4.132
	c-0.841-0.101-1.705-0.205-2.588-0.311c0-1.418,0-2.835,0-4.252C39.882,23.44,40.746,23.584,41.587,23.726L41.587,23.726z"/>
</svg>
