<?xml version="1.0" encoding="utf-8"?>
<!-- Generator: Adobe Illustrator 16.0.4, SVG Export Plug-In . SVG Version: 6.00 Build 0)  -->
<!DOCTYPE svg PUBLIC "-//W3C//DTD SVG 1.1//EN" "http://www.w3.org/Graphics/SVG/1.1/DTD/svg11.dtd">
<svg version="1.1" id="Layer_1" xmlns="http://www.w3.org/2000/svg" xmlns:xlink="http://www.w3.org/1999/xlink" x="0px" y="0px"
	 width="50px" height="50px" viewBox="0 0 50 50" enable-background="new 0 0 50 50" xml:space="preserve">
<path fill-rule="evenodd" clip-rule="evenodd" fill="#333333" d="M30.562,20.038l-5.146,2.203l-14.382-6.18l5.146-2.204
	L30.562,20.038z M20.781,11.881l4.635-1.988l14.37,6.168l-4.635,2L20.781,11.881z M35.946,19.083l4.795-2.068v17.37l-14.7,6.327
	v-17.37l5.305-2.283v8.361l4.601-1.977V19.083z M9.182,15.505 M9.148,15.516 M9.137,15.528 M9.023,15.619 M9.012,15.63
	 M8.989,15.652 M8.978,15.652 M8.887,15.789 M8.887,15.8 M8.875,15.834 M8.864,15.846 M8.864,15.868 M41.718,15.55 M8.853,15.88
	 M8.83,16.005 M8.83,16.016 M8.83,16.027 M8.83,16.05 M8.83,16.062 M41.797,15.607 M25.177,42.247 M25.643,42.247 M42.002,16.062
	 M42.002,16.039 M41.831,15.642 M41.99,15.971 M41.968,15.891 M41.968,15.88 M41.956,15.846 M41.877,15.698L41.877,15.698v-0.012
	h-0.012v-0.011l-0.022-0.023h-0.012v-0.011l-0.012-0.012l0,0l-0.012-0.011l0,0l-0.011-0.012l-0.011-0.011l0,0l-0.023-0.022
	l-0.012-0.012l0,0H41.74h-0.012l-0.011-0.011v-0.011h-0.012l0,0l-0.012-0.011l-0.022-0.012h-0.011v-0.011h-0.012h-0.012
	l-0.012-0.011l0,0h-0.011l0,0L25.654,8.632c-0.147-0.069-0.329-0.069-0.488,0l-15.96,6.861l0,0H9.193l0,0l-0.011,0.011l0,0H9.17l0,0
	L9.16,15.516H9.148l-0.011,0.012l0,0H9.125v0.011H9.114l0,0l0,0L9.103,15.55l0,0H9.091v0.011H9.08l0,0l0,0l-0.011,0.012l0,0l0,0
	l-0.023,0.022l0,0H9.035v0.011H9.023l0,0v0.012H9.012v0.011L9,15.642H8.989v0.011H8.978v0.012H8.966l0,0v0.011l0,0l-0.011,0.011l0,0
	l-0.011,0.012l0,0l0,0v0.011l0,0H8.933v0.011l0,0l0,0l-0.012,0.012l0,0l0,0v0.011H8.909v0.012l0,0v0.012H8.898l0,0v0.011l0,0v0.012
	H8.887V15.8l0,0l-0.012,0.023l0,0l0,0v0.011l0,0H8.864v0.011l0,0l0,0v0.012l0,0l0,0v0.011H8.853l0,0v0.012l0,0l0,0v0.011l0,0l0,0
	l0,0v0.011l0,0H8.841v0.012l0,0l0,0l0,0v0.011l0,0l0,0l0,0v0.011l0,0l0,0l0,0v0.012l0,0v0.011H8.83l0,0l0,0v0.012v0.011l0,0v0.011
	l0,0l0,0v0.012l0,0l0,0v0.011l0,0l0,0v0.011l0,0l0,0v0.012l0,0l0,0v0.011l0,0l0,0v0.011l0,0l0,0v18.744
	c0,0.261,0.159,0.499,0.397,0.579l15.938,6.85l0,0l0.011,0.013h0.012l0.022,0.011l0,0h0.011l0.022,0.012h0.012h0.011l0.091,0.011
	v0.012h0.011h0.012l0,0h0.011h0.011h0.012h0.011l0,0h0.012h0.011l0,0h0.012l0.011-0.012c0.022,0,0.057,0,0.08-0.011h0.011h0.012
	l0.022-0.012h0.011h0.012l0.012-0.011h0.011l0.012-0.013l0,0l15.938-6.85c0.239-0.08,0.41-0.318,0.41-0.579V16.062l0,0l0,0V16.05
	l0,0l0,0v-0.011l0,0l0,0l-0.012-0.012l0,0l0,0v-0.011l0,0l0,0v-0.011l0,0l0,0l0,0v-0.012l0,0l0,0l0,0v-0.011l0,0l0,0l0,0v-0.011l0,0
	v-0.012l0,0v-0.011l-0.012-0.034v-0.012l0,0l0,0l0,0l-0.011-0.011l0,0V15.88l0,0v-0.012l0,0v-0.011l0,0h-0.012v-0.012l0,0l0,0
	v-0.011l0,0l0,0l-0.012-0.011l0,0l0,0l0,0v-0.012V15.8l-0.011-0.011l0,0l-0.012-0.012l0,0v-0.011l-0.012-0.023l-0.011-0.011l0,0
	l-0.012-0.012v-0.011L41.877,15.698z M19.781,21.184l4.999,2.159v17.37l-14.7-6.327v-17.37L19.781,21.184z"/>
</svg>
