<?xml version="1.0" encoding="utf-8"?>
<!-- Generator: Adobe Illustrator 16.0.4, SVG Export Plug-In . SVG Version: 6.00 Build 0)  -->
<!DOCTYPE svg PUBLIC "-//W3C//DTD SVG 1.1//EN" "http://www.w3.org/Graphics/SVG/1.1/DTD/svg11.dtd">
<svg version="1.1" id="Layer_1" xmlns="http://www.w3.org/2000/svg" xmlns:xlink="http://www.w3.org/1999/xlink" x="0px" y="0px"
	 width="50px" height="50px" viewBox="0 0 50 50" enable-background="new 0 0 50 50" xml:space="preserve">
<g>
	<path fill="#333333" d="M46.873,3.125v43.748H3.125V3.125H46.873 M50,0H0v50h50V0L50,0z"/>
</g>
<g>
	<path fill="#333333" d="M10.312,26.799c-0.545-0.521-0.553-1.389-0.02-1.924l3.81-3.809c0.534-0.535,1.406-0.534,1.938,0.005
		l5.538,5.602c0.532,0.541,1.401,0.541,1.936,0L36.18,13.857c0.529-0.539,1.402-0.543,1.941-0.007l3.592,3.598
		c0.534,0.536,0.534,1.408,0,1.942L23.52,37.588c-0.535,0.535-1.416,0.541-1.962,0.02L10.312,26.799z"/>
</g>
</svg>
