<?xml version="1.0" encoding="utf-8"?>
<!-- Generator: Adobe Illustrator 16.0.4, SVG Export Plug-In . SVG Version: 6.00 Build 0)  -->
<!DOCTYPE svg PUBLIC "-//W3C//DTD SVG 1.1//EN" "http://www.w3.org/Graphics/SVG/1.1/DTD/svg11.dtd">
<svg version="1.1" id="Layer_1" xmlns="http://www.w3.org/2000/svg" xmlns:xlink="http://www.w3.org/1999/xlink" x="0px" y="0px"
	 width="50px" height="50px" viewBox="0 0 50 50" enable-background="new 0 0 50 50" xml:space="preserve">
<g>
	<path fill="#F6A10A" d="M47.026,38.116L29.545,7.84c-1.093-1.894-2.531-2.838-3.973-2.838c-1.439,0-2.88,0.944-3.973,2.838
		L4.118,38.116c-2.184,3.786-0.396,6.882,3.973,6.882h34.962C47.424,44.998,49.211,41.902,47.026,38.116z M44.613,41.309
		c-0.053,0.068-0.499,0.356-1.559,0.356H8.093c-1.061,0-1.505-0.288-1.555-0.353c-0.035-0.08-0.061-0.608,0.47-1.529l17.48-30.276
		c0.531-0.919,1.001-1.162,1.083-1.172c0.088,0.01,0.559,0.253,1.089,1.172l17.481,30.276C44.67,40.704,44.645,41.232,44.613,41.309
		z"/>
	<polygon fill="#3E3E3F" points="23.426,32.446 27.726,32.446 28.679,19.071 22.593,19.071 	"/>
	<rect x="23.479" y="34.213" fill="#3E3E3F" width="4.193" height="4.192"/>
</g>
</svg>
