<?xml version="1.0" encoding="utf-8"?>
<!-- Generator: Adobe Illustrator 16.0.4, SVG Export Plug-In . SVG Version: 6.00 Build 0)  -->
<!DOCTYPE svg PUBLIC "-//W3C//DTD SVG 1.1//EN" "http://www.w3.org/Graphics/SVG/1.1/DTD/svg11.dtd">
<svg version="1.1" id="Layer_1" xmlns="http://www.w3.org/2000/svg" xmlns:xlink="http://www.w3.org/1999/xlink" x="0px" y="0px"
	 width="50px" height="50px" viewBox="0 0 50 50" enable-background="new 0 0 50 50" xml:space="preserve">
<g>
	<path d="M34.99,24.565l-7.592,16.14c-0.439,0.917-1.396,1.48-2.4,1.48c-0.998,0-1.96-0.563-2.377-1.48l-7.61-16.14
		c-0.542-1.149-0.689-2.462-0.689-3.734c0-5.902,4.775-10.678,10.676-10.678c5.906,0,10.679,4.776,10.679,10.678
		C35.678,22.104,35.533,23.416,34.99,24.565z M24.999,15.492c-2.939,0-5.338,2.399-5.338,5.339c0,2.939,2.399,5.339,5.338,5.339
		c2.944,0,5.339-2.4,5.339-5.339C30.338,17.891,27.943,15.492,24.999,15.492z"/>
</g>
</svg>
