<?xml version="1.0" encoding="utf-8"?>
<!-- Generator: Adobe Illustrator 16.0.4, SVG Export Plug-In . SVG Version: 6.00 Build 0)  -->
<!DOCTYPE svg PUBLIC "-//W3C//DTD SVG 1.1//EN" "http://www.w3.org/Graphics/SVG/1.1/DTD/svg11.dtd">
<svg version="1.1" id="Layer_1" xmlns="http://www.w3.org/2000/svg" xmlns:xlink="http://www.w3.org/1999/xlink" x="0px" y="0px"
	 width="50px" height="50px" viewBox="0 0 50 50" enable-background="new 0 0 50 50" xml:space="preserve">
<g>
	<path fill="#333333" d="M45.758,14.076l-0.785-0.386c-0.889-0.437-1.963-0.071-2.399,0.817l-6.545,13.25h-15.51L14.947,11.4
		c-0.188-0.552-0.62-0.95-1.133-1.12c-0.202-0.079-0.42-0.124-0.649-0.124H5.031c-0.991,0-1.794,0.803-1.794,1.793v0.875
		c0,0.99,0.803,1.793,1.794,1.793h6.298l5.474,16.066c0.126,0.867,0.871,1.534,1.772,1.534h19.107c0.012,0,0.024-0.003,0.036-0.003
		c0.033-0.001,0.067-0.002,0.101-0.005c0.025-0.001,0.05-0.004,0.074-0.007c0.035-0.005,0.071-0.009,0.106-0.016
		c0.021-0.003,0.044-0.008,0.067-0.012c0.035-0.009,0.073-0.018,0.11-0.029c0.018-0.005,0.036-0.01,0.055-0.016
		c0.042-0.013,0.084-0.03,0.127-0.047c0.01-0.004,0.02-0.007,0.028-0.012c0.383-0.162,0.711-0.456,0.91-0.858l7.28-14.738
		C47.014,15.588,46.646,14.512,45.758,14.076z"/>
	<circle fill="#333333" cx="20.836" cy="38.292" r="3.586"/>
	<circle fill="#333333" cx="35.151" cy="38.292" r="3.586"/>
</g>
</svg>
