<?xml version="1.0" encoding="utf-8"?>
<!-- Generator: Adobe Illustrator 16.0.4, SVG Export Plug-In . SVG Version: 6.00 Build 0)  -->
<!DOCTYPE svg PUBLIC "-//W3C//DTD SVG 1.1//EN" "http://www.w3.org/Graphics/SVG/1.1/DTD/svg11.dtd">
<svg version="1.1" id="Layer_1" xmlns="http://www.w3.org/2000/svg" xmlns:xlink="http://www.w3.org/1999/xlink" x="0px" y="0px"
	 width="50px" height="50px" viewBox="0 0 50 50" enable-background="new 0 0 50 50" xml:space="preserve">
<g>
	<path d="M34.047,42.131H15.939c-3.294,0-5.532-2.009-5.532-5.362c0-4.685,1.098-11.877,7.17-11.877
		c0.642,0,3.358,2.882,7.417,2.882c4.059,0,6.776-2.882,7.417-2.882c6.074,0,7.17,7.192,7.17,11.877
		C39.581,40.122,37.343,42.131,34.047,42.131z M24.994,26.218c-4.392,0-7.956-3.563-7.956-7.956c0-4.392,3.564-7.957,7.956-7.957
		c4.393,0,7.957,3.564,7.957,7.957C32.951,22.655,29.387,26.218,24.994,26.218z"/>
</g>
</svg>
