<?xml version="1.0" encoding="utf-8"?>
<!-- Generator: Adobe Illustrator 16.0.4, SVG Export Plug-In . SVG Version: 6.00 Build 0)  -->
<!DOCTYPE svg PUBLIC "-//W3C//DTD SVG 1.1//EN" "http://www.w3.org/Graphics/SVG/1.1/DTD/svg11.dtd">
<svg version="1.1" id="Layer_1" xmlns="http://www.w3.org/2000/svg" xmlns:xlink="http://www.w3.org/1999/xlink" x="0px" y="0px"
	 width="50px" height="50px" viewBox="0 0 50 50" enable-background="new 0 0 50 50" xml:space="preserve">
<g>
	<path fill="#3E3E3F" d="M44.225,13.716c0,1.574-0.997,2.849-2.229,2.849H8.004c-1.23,0-2.229-1.274-2.229-2.849v-0.711
		c0-1.574,0.998-2.849,2.229-2.849h33.991c1.232,0,2.229,1.274,2.229,2.849V13.716z"/>
	<path fill="#3E3E3F" d="M44.225,26.533c0,1.574-0.997,2.848-2.229,2.848H8.004c-1.23,0-2.229-1.273-2.229-2.848v-0.711
		c0-1.575,0.998-2.849,2.229-2.849h33.991c1.232,0,2.229,1.274,2.229,2.849V26.533z"/>
	<path fill="#3E3E3F" d="M44.225,39.35c0,1.574-0.997,2.848-2.229,2.848H8.004c-1.23,0-2.229-1.273-2.229-2.848v-0.711
		c0-1.574,0.998-2.85,2.229-2.85h33.991c1.232,0,2.229,1.275,2.229,2.85V39.35z"/>
</g>
</svg>
