<?xml version="1.0" encoding="utf-8"?>
<!-- Generator: Adobe Illustrator 16.0.4, SVG Export Plug-In . SVG Version: 6.00 Build 0)  -->
<!DOCTYPE svg PUBLIC "-//W3C//DTD SVG 1.1//EN" "http://www.w3.org/Graphics/SVG/1.1/DTD/svg11.dtd">
<svg version="1.1" id="Layer_1" xmlns="http://www.w3.org/2000/svg" xmlns:xlink="http://www.w3.org/1999/xlink" x="0px" y="0px"
	 width="50px" height="50px" viewBox="0 0 50 50" enable-background="new 0 0 50 50" xml:space="preserve">
<g>
	<path fill="#3E3E3F" d="M25.403,26.283h18.818c0.815,0,1.478-0.661,1.478-1.476c0-0.816-0.66-1.478-1.478-1.478H25.403
		c-0.816,0-1.477,0.661-1.477,1.478C23.927,25.622,24.587,26.283,25.403,26.283z"/>
	<path fill="#3E3E3F" d="M25.429,26.283H6.612c-0.816,0-1.477-0.661-1.477-1.476c0-0.816,0.66-1.478,1.477-1.478h18.816
		c0.816,0,1.476,0.661,1.476,1.478C26.904,25.622,26.245,26.283,25.429,26.283z"/>
</g>
<path fill="#3E3E3F" d="M34.43,26.283H15.612c-0.816,0-1.477-0.661-1.477-1.476c0-0.816,0.66-1.478,1.477-1.478h18.816
	c0.816,0,1.477,0.661,1.477,1.478C35.904,25.622,35.245,26.283,34.43,26.283z"/>
<path fill="#3E3E3F" d="M25.43,26.283H6.612c-0.816,0-1.477-0.661-1.477-1.476c0-0.816,0.66-1.478,1.477-1.478h18.816
	c0.816,0,1.476,0.661,1.476,1.478C26.904,25.622,26.246,26.283,25.43,26.283z"/>
<path fill="#3E3E3F" d="M44.223,26.283H25.404c-0.816,0-1.477-0.661-1.477-1.476c0-0.816,0.66-1.478,1.477-1.478h18.816
	c0.816,0,1.477,0.661,1.477,1.478C45.697,25.622,45.037,26.283,44.223,26.283z"/>
</svg>
