<?xml version="1.0" encoding="utf-8"?>
<!-- Generator: Adobe Illustrator 16.0.4, SVG Export Plug-In . SVG Version: 6.00 Build 0)  -->
<!DOCTYPE svg PUBLIC "-//W3C//DTD SVG 1.1//EN" "http://www.w3.org/Graphics/SVG/1.1/DTD/svg11.dtd">
<svg version="1.1" id="Layer_1" xmlns="http://www.w3.org/2000/svg" xmlns:xlink="http://www.w3.org/1999/xlink" x="0px" y="0px"
	 width="50px" height="50px" viewBox="0 0 50 50" enable-background="new 0 0 50 50" xml:space="preserve">
<g>
	<path fill="#3E3E3F" d="M26.042,24.82V6.003c0-0.816-0.662-1.477-1.477-1.477s-1.477,0.66-1.477,1.477V24.82
		c0,0.814,0.662,1.476,1.477,1.476S26.042,25.635,26.042,24.82z"/>
	<path fill="#3E3E3F" d="M24.553,26.283h18.816c0.816,0,1.477-0.661,1.477-1.476c0-0.816-0.661-1.478-1.477-1.478H24.553
		c-0.816,0-1.477,0.661-1.477,1.478C23.076,25.622,23.737,26.283,24.553,26.283z"/>
	<path fill="#3E3E3F" d="M24.578,26.283H5.762c-0.816,0-1.477-0.661-1.477-1.476c0-0.816,0.66-1.478,1.477-1.478h18.816
		c0.816,0,1.477,0.661,1.477,1.478C26.055,25.622,25.394,26.283,24.578,26.283z"/>
	<path fill="#3E3E3F" d="M26.042,24.793V43.61c0,0.816-0.662,1.477-1.477,1.477s-1.477-0.66-1.477-1.477V24.793
		c0-0.814,0.662-1.476,1.477-1.476S26.042,23.979,26.042,24.793z"/>
</g>
</svg>
