<?xml version="1.0" encoding="utf-8"?>
<!-- Generator: Adobe Illustrator 16.0.4, SVG Export Plug-In . SVG Version: 6.00 Build 0)  -->
<!DOCTYPE svg PUBLIC "-//W3C//DTD SVG 1.1//EN" "http://www.w3.org/Graphics/SVG/1.1/DTD/svg11.dtd">
<svg version="1.1" id="Layer_1" xmlns="http://www.w3.org/2000/svg" xmlns:xlink="http://www.w3.org/1999/xlink" x="0px" y="0px"
	 width="50px" height="50px" viewBox="0 0 50 50" enable-background="new 0 0 50 50" xml:space="preserve">
<g>
	
		<path fill="none" stroke="#C60000" stroke-width="2.4622" stroke-linecap="round" stroke-linejoin="round" stroke-miterlimit="22.9256" d="
		M9.52,5.026c2.176,0.679,3.364,2.589,2.651,4.269c-0.711,1.676-3.055,2.486-5.232,1.807c-2.177-0.68-3.365-2.591-2.653-4.269
		C4.998,5.155,7.341,4.347,9.52,5.026L9.52,5.026z"/>
	
		<line fill="none" stroke="#C60000" stroke-width="2.4622" stroke-linecap="round" stroke-linejoin="round" stroke-miterlimit="22.9256" x1="11.066" y1="11.06" x2="32.601" y2="21.685"/>
	
		<path fill="none" stroke="#C60000" stroke-width="2.4622" stroke-linecap="round" stroke-linejoin="round" stroke-miterlimit="22.9256" d="
		M9.52,23.27c2.176-0.68,3.364-2.59,2.651-4.268c-0.711-1.679-3.055-2.486-5.232-1.807c-2.177,0.68-3.365,2.589-2.653,4.268
		C4.998,23.139,7.341,23.948,9.52,23.27L9.52,23.27z"/>
	
		<line fill="none" stroke="#C60000" stroke-width="2.4622" stroke-linecap="round" stroke-linejoin="round" stroke-miterlimit="22.9256" x1="11.067" y1="17.235" x2="32.601" y2="6.61"/>
	
		<path fill="none" stroke="#C60000" stroke-width="2.4622" stroke-linecap="round" stroke-linejoin="round" stroke-miterlimit="22.9256" stroke-dasharray="4.9244,4.9244" d="
		M26.745,14.1h15.937c1.78,0,3.238,1.431,3.238,3.135v24.627c0,1.72-1.462,3.136-3.238,3.136H10.583
		c-1.771,0-3.239-1.412-3.239-3.136v-15.25"/>
</g>
</svg>
