<?xml version="1.0" encoding="utf-8"?>
<!-- Generator: Adobe Illustrator 16.0.4, SVG Export Plug-In . SVG Version: 6.00 Build 0)  -->
<!DOCTYPE svg PUBLIC "-//W3C//DTD SVG 1.1//EN" "http://www.w3.org/Graphics/SVG/1.1/DTD/svg11.dtd">
<svg version="1.1" id="Layer_1" xmlns="http://www.w3.org/2000/svg" xmlns:xlink="http://www.w3.org/1999/xlink" x="0px" y="0px"
	 width="50px" height="50px" viewBox="0 0 50 50" enable-background="new 0 0 50 50" xml:space="preserve">
<g>
	
		<line fill="none" stroke="#754C13" stroke-width="0.2168" stroke-miterlimit="10" x1="46.167" y1="22.657" x2="3.144" y2="22.657"/>
	<line fill="none" stroke="#754C13" stroke-width="0.2185" stroke-miterlimit="10" x1="3.144" y1="22.56" x2="3.144" y2="26.088"/>
	<line fill="none" stroke="#754C13" stroke-width="0.2185" stroke-miterlimit="10" x1="5.884" y1="22.56" x2="5.884" y2="26.088"/>
	<line fill="none" stroke="#754C13" stroke-width="0.2185" stroke-miterlimit="10" x1="8.625" y1="22.56" x2="8.625" y2="26.088"/>
	
		<line fill="none" stroke="#754C13" stroke-width="0.2185" stroke-miterlimit="10" x1="11.639" y1="22.56" x2="11.639" y2="26.088"/>
	
		<line fill="none" stroke="#754C13" stroke-width="0.2185" stroke-miterlimit="10" x1="14.653" y1="22.56" x2="14.653" y2="26.088"/>
	
		<line fill="none" stroke="#754C13" stroke-width="0.2185" stroke-miterlimit="10" x1="17.394" y1="22.56" x2="17.394" y2="26.088"/>
	
		<line fill="none" stroke="#754C13" stroke-width="0.2185" stroke-miterlimit="10" x1="20.134" y1="22.56" x2="20.134" y2="26.088"/>
	
		<line fill="none" stroke="#754C13" stroke-width="0.2185" stroke-miterlimit="10" x1="23.148" y1="22.56" x2="23.148" y2="26.088"/>
	
		<line fill="none" stroke="#754C13" stroke-width="0.2185" stroke-miterlimit="10" x1="26.163" y1="22.56" x2="26.163" y2="26.088"/>
	
		<line fill="none" stroke="#754C13" stroke-width="0.2185" stroke-miterlimit="10" x1="28.903" y1="22.56" x2="28.903" y2="26.088"/>
	
		<line fill="none" stroke="#754C13" stroke-width="0.2185" stroke-miterlimit="10" x1="31.643" y1="22.56" x2="31.643" y2="26.088"/>
	
		<line fill="none" stroke="#754C13" stroke-width="0.2185" stroke-miterlimit="10" x1="34.658" y1="22.56" x2="34.658" y2="26.088"/>
	
		<line fill="none" stroke="#754C13" stroke-width="0.2185" stroke-miterlimit="10" x1="37.672" y1="22.56" x2="37.672" y2="26.088"/>
	
		<line fill="none" stroke="#754C13" stroke-width="0.2185" stroke-miterlimit="10" x1="40.412" y1="22.56" x2="40.412" y2="26.088"/>
	
		<line fill="none" stroke="#754C13" stroke-width="0.2185" stroke-miterlimit="10" x1="43.153" y1="22.56" x2="43.153" y2="26.088"/>
	
		<line fill="none" stroke="#754C13" stroke-width="0.2185" stroke-miterlimit="10" x1="46.167" y1="22.56" x2="46.167" y2="26.088"/>
</g>
</svg>
