<?xml version="1.0" encoding="utf-8"?>
<!-- Generator: Adobe Illustrator 16.0.4, SVG Export Plug-In . SVG Version: 6.00 Build 0)  -->
<!DOCTYPE svg PUBLIC "-//W3C//DTD SVG 1.1//EN" "http://www.w3.org/Graphics/SVG/1.1/DTD/svg11.dtd">
<svg version="1.1" id="Layer_1" xmlns="http://www.w3.org/2000/svg" xmlns:xlink="http://www.w3.org/1999/xlink" x="0px" y="0px"
	 width="50px" height="50px" viewBox="0 0 50 50" enable-background="new 0 0 50 50" xml:space="preserve">
<path fill="#3E3E3F" d="M25,10.156c-5.317,0-9.628,4.485-9.628,10.018c0,0.862,0.059,1.179,0.059,1.179
	c0.134,0.725,0.34,1.62,0.458,1.988c0.118,0.369,0.289,0.84,0.38,1.048c0.09,0.208,0.616,1.28,0.928,1.943l7.236,15.37
	c0.312,0.663,0.822,0.663,1.135,0l7.236-15.37c0.312-0.663,0.651-1.37,0.754-1.57c0.102-0.201,0.437-1.052,0.555-1.42
	c0.118-0.368,0.324-1.263,0.459-1.988c0,0,0.057-0.317,0.057-1.179C34.628,14.642,30.318,10.156,25,10.156z M25,25.537
	c-3.116,0-5.642-2.526-5.642-5.642c0-3.115,2.526-5.641,5.642-5.641c3.116,0,5.642,2.525,5.642,5.641
	C30.642,23.011,28.116,25.537,25,25.537z"/>
</svg>
