<?xml version="1.0" encoding="utf-8"?>
<!-- Generator: Adobe Illustrator 16.0.4, SVG Export Plug-In . SVG Version: 6.00 Build 0)  -->
<!DOCTYPE svg PUBLIC "-//W3C//DTD SVG 1.1//EN" "http://www.w3.org/Graphics/SVG/1.1/DTD/svg11.dtd">
<svg version="1.1" id="Layer_1" xmlns="http://www.w3.org/2000/svg" xmlns:xlink="http://www.w3.org/1999/xlink" x="0px" y="0px"
	 width="50px" height="50px" viewBox="0 0 50 50" enable-background="new 0 0 50 50" xml:space="preserve">
<g>
	<path fill="#979797" d="M26.651,24.997L12.278,10.625c-0.623-0.624-1.632-0.624-2.255,0c-0.623,0.622-0.624,1.631,0,2.255
		l14.373,14.375c0.624,0.622,1.632,0.621,2.255,0C27.276,26.629,27.276,25.621,26.651,24.997z"/>
	<path fill="#979797" d="M26.633,27.254L41.008,12.88c0.623-0.624,0.621-1.634,0-2.256c-0.625-0.624-1.633-0.624-2.257,0
		L24.377,24.998c-0.623,0.623-0.624,1.633,0,2.256C25,27.876,26.01,27.876,26.633,27.254z"/>
	<path fill="#979797" d="M26.653,27.235L12.279,41.607c-0.624,0.623-1.633,0.623-2.256,0c-0.623-0.623-0.623-1.632,0-2.255
		l14.374-14.375c0.623-0.622,1.633-0.623,2.257,0C27.276,25.602,27.276,26.612,26.653,27.235z"/>
	<path fill="#979797" d="M26.632,24.978l14.376,14.375c0.623,0.623,0.623,1.632,0,2.255s-1.633,0.623-2.257,0L24.376,27.233
		c-0.622-0.623-0.622-1.632,0-2.255C25,24.354,26.01,24.355,26.632,24.978z"/>
</g>
</svg>
